<?xml version="1.0" standalone="no"?>
<!DOCTYPE svg PUBLIC "-//W3C//DTD SVG 20010904//EN"
 "http://www.w3.org/TR/2001/REC-SVG-20010904/DTD/svg10.dtd">
<svg version="1.0" xmlns="http://www.w3.org/2000/svg"
 width="141.000000pt" height="132.000000pt" viewBox="0 0 141.000000 132.000000"
 preserveAspectRatio="xMidYMid meet">
<metadata>
Created by potrace 1.16, written by Peter Selinger 2001-2019
</metadata>
<g transform="translate(0.000000,132.000000) scale(0.100000,-0.100000)"
fill="#563d7c" stroke="none">
<path d="M1150 1233 c-20 -8 -30 -24 -30 -48 0 -18 3 -17 25 8 29 30 84 37
104 13 33 -40 -18 -110 -78 -108 -21 0 -34 -6 -41 -18 -9 -16 -5 -19 31 -25
50 -9 79 -35 79 -73 0 -62 -80 -93 -132 -52 -19 14 -28 16 -36 8 -30 -30 -3
-48 71 -48 117 0 194 129 106 179 -36 20 -36 26 1 41 59 24 79 86 38 114 -22
16 -106 21 -138 9z"/>
<path d="M629 1144 c-119 -36 -202 -132 -245 -281 -2 -8 -20 -13 -42 -13 -26
0 -45 -7 -57 -20 -18 -20 -17 -20 33 -20 41 0 52 -3 52 -16 0 -20 -66 -415
-86 -519 -28 -138 -74 -195 -156 -195 -33 0 -38 -3 -38 -24 0 -22 3 -23 33
-17 54 13 111 47 154 94 80 87 102 153 152 449 l37 223 74 3 c70 3 100 13 100
33 0 5 -36 9 -80 9 -70 0 -80 2 -80 18 0 31 30 142 45 173 31 59 116 86 180
57 22 -10 29 -8 55 17 17 16 30 32 30 37 0 13 -111 8 -161 -8z"/>
<path d="M844 993 c-41 -14 -42 -15 -54 -78 l-12 -65 -44 0 c-33 0 -46 -5 -54
-20 -10 -19 -8 -20 40 -20 47 0 50 -1 45 -22 -27 -114 -65 -331 -65 -370 0
-61 24 -88 78 -88 63 0 181 69 170 100 -2 6 -20 -1 -42 -16 -23 -16 -54 -27
-75 -28 -32 -1 -36 2 -39 25 -3 22 43 288 65 377 5 20 11 22 78 22 59 0 75 4
90 20 18 20 17 20 -68 20 -48 0 -87 4 -87 10 0 5 5 32 11 59 6 28 9 59 7 69
-3 18 -6 18 -44 5z"/>
</g>
</svg>
