<?xml version="1.0" standalone="no"?>
<!DOCTYPE svg PUBLIC "-//W3C//DTD SVG 20010904//EN"
 "http://www.w3.org/TR/2001/REC-SVG-20010904/DTD/svg10.dtd">
<svg version="1.0" xmlns="http://www.w3.org/2000/svg"
 width="142.000000pt" height="89.000000pt" viewBox="0 0 142.000000 89.000000"
 preserveAspectRatio="xMidYMid meet">
<g transform="translate(0.000000,89.000000) scale(0.100000,-0.100000)"
fill="#563d7c" stroke="none">
<path d="M1170 797 c-14 -7 -26 -21 -28 -31 -4 -17 -3 -18 19 -2 49 34 109 9
109 -45 -1 -42 -44 -79 -94 -79 -32 0 -64 -29 -44 -41 7 -5 27 -8 45 -7 46 2
83 -26 83 -62 0 -67 -84 -109 -151 -76 -36 18 -49 14 -33 -11 23 -36 113 -40
175 -8 34 18 59 62 59 103 0 33 -34 82 -56 82 -9 0 2 16 26 38 32 31 40 46 40
75 0 64 -81 99 -150 64z"/>
<path d="M465 604 c-63 -32 -128 -111 -210 -254 -31 -55 -36 -60 -31 -32 3 18
9 82 12 142 6 99 5 110 -11 116 -27 11 -91 -9 -86 -26 13 -42 11 -114 -4 -249
-9 -82 -14 -159 -10 -170 12 -40 85 -39 85 2 0 45 121 270 185 345 37 42 71
54 81 28 3 -8 -10 -94 -30 -190 -19 -97 -33 -183 -30 -191 7 -18 38 -28 62
-21 10 4 23 21 30 39 19 53 165 270 219 326 49 50 79 63 89 38 2 -7 -5 -57
-16 -111 -27 -130 -27 -225 0 -259 47 -59 127 -42 215 46 34 34 76 83 94 110
l32 47 -33 -1 c-27 0 -40 -9 -74 -52 -47 -60 -100 -99 -128 -95 -40 6 -42 47
-12 202 18 92 26 155 21 176 -9 39 -40 55 -92 45 -54 -10 -172 -132 -240 -250
-29 -50 -53 -85 -53 -80 0 6 9 53 20 105 26 127 27 206 1 220 -27 14 -51 13
-86 -6z"/>
</g>
</svg>
